<svg width="18" height="17" viewBox="0 0 18 17" fill="none" xmlns="http://www.w3.org/2000/svg">
<path d="M4.37949 13.8333L0.666992 16.75V1.33333C0.666992 1.11232 0.75479 0.900358 0.91107 0.744078C1.06735 0.587797 1.27931 0.5 1.50033 0.5H16.5003C16.7213 0.5 16.9333 0.587797 17.0896 0.744078C17.2459 0.900358 17.3337 1.11232 17.3337 1.33333V13C17.3337 13.221 17.2459 13.433 17.0896 13.5893C16.9333 13.7455 16.7213 13.8333 16.5003 13.8333H4.37949ZM3.80283 12.1667H15.667V2.16667H2.33366V13.3208L3.80283 12.1667ZM8.16699 6.33333H9.83366V8H8.16699V6.33333ZM4.83366 6.33333H6.50033V8H4.83366V6.33333ZM11.5003 6.33333H13.167V8H11.5003V6.33333Z" fill="black"/>
</svg>
